<svg xmlns="http://www.w3.org/2000/svg" viewBox="0 0 128 128" role="img" aria-labelledby="rustTitle rustDesc">
  <title id="rustTitle">Rust</title>
  <desc id="rustDesc">Stylized Rust gear mark</desc>
  <defs>
    <linearGradient id="rustShade" x1="0%" x2="100%" y1="0%" y2="100%">
      <stop offset="0%" stop-color="#f5f5f5"/>
      <stop offset="100%" stop-color="#cfcfcf"/>
    </linearGradient>
  </defs>
  <g fill="url(#rustShade)">
    <path d="M64 7.5l8 7.2 10.6-2.7 4.9 9.8 10.9 1.1.5 10.9 9.8 4.9-2.7 10.6 7.2 8-7.2 8 2.7 10.6-9.8 4.9-.5 10.9-10.9 1.1-4.9 9.8-10.6-2.7-8 7.2-8-7.2-10.6 2.7-4.9-9.8-10.9-1.1-.5-10.9-9.8-4.9 2.7-10.6-7.2-8 7.2-8-2.7-10.6 9.8-4.9.5-10.9 10.9-1.1 4.9-9.8 10.6 2.7z"/>
    <circle cx="64" cy="64" r="34"/>
  </g>
  <circle cx="64" cy="64" r="23" fill="#0f1014"/>
  <path fill="#f6f6f3" d="M50 43h17.1c9.9 0 16.9 5.8 16.9 14.6 0 6.7-4 11.1-9.3 13.3l10.7 14.1H73.8l-8.6-11.7H61v11.7H50V43zm16 21.5c4.4 0 7.1-2.4 7.1-6.1 0-4-2.9-6-7.3-6H61v12.1h5z"/>
</svg>
